<svg width="100" height="100" viewBox="0 0 100 100" fill="none" xmlns="http://www.w3.org/2000/svg">
<path fill-rule="evenodd" clip-rule="evenodd" d="M88.9013 25.5143L52.2495 4.35343C51.0617 3.66764 49.5982 3.66764 48.4104 4.35343L11.7586 25.5143C10.5708 26.2001 9.83909 27.4675 9.83909 28.8391V71.1609C9.83909 72.5325 10.5708 73.7999 11.7586 74.4857L48.4104 95.6466C49.5982 96.3324 51.0617 96.3324 52.2495 95.6466L88.9013 74.4857C90.0891 73.7999 90.8208 72.5325 90.8208 71.1609V28.8391C90.8208 27.4675 90.0891 26.2001 88.9013 25.5143ZM54.169 1.02868C51.7934 -0.342894 48.8665 -0.342893 46.4909 1.02868L9.83909 22.1896C7.46345 23.5612 6 26.0959 6 28.8391V71.1609C6 73.9041 7.46345 76.4388 9.83909 77.8104L46.4909 98.9713C48.8665 100.343 51.7934 100.343 54.169 98.9713L90.8208 77.8104C93.1964 76.4388 94.6599 73.9041 94.6599 71.1609V28.8391C94.6599 26.0959 93.1964 23.5612 90.8208 22.1896L54.169 1.02868Z" fill="white"/>
<path d="M50.0728 56.2864C50.0728 56.7918 49.9834 57.3342 49.8047 57.9133C49.6365 58.4925 49.3527 59.0295 48.9532 59.5244C48.5643 60.0194 48.0544 60.4353 47.4237 60.7723C46.793 61.0987 46.0204 61.2619 45.1058 61.2619H29.5426C29.2483 61.2619 28.975 61.2093 28.7227 61.104C28.4704 60.9987 28.2496 60.8565 28.0604 60.6775C27.8817 60.488 27.7398 60.2668 27.6347 60.0141C27.5296 59.7614 27.477 59.4876 27.477 59.1927V40.6805C27.477 40.3962 27.5296 40.1277 27.6347 39.875C27.7398 39.6222 27.8817 39.4011 28.0604 39.2116C28.2496 39.022 28.4704 38.8746 28.7227 38.7693C28.975 38.664 29.2483 38.6113 29.5426 38.6113H43.2609C43.7655 38.6113 44.3069 38.7008 44.885 38.8799C45.4632 39.0589 45.9993 39.3484 46.4934 39.7486C46.998 40.1382 47.4132 40.6489 47.7391 41.2808C48.0755 41.9126 48.2437 42.6865 48.2437 43.6027V44.3767C48.2437 45.1032 48.1228 45.8877 47.881 46.7302C47.6392 47.5621 47.2503 48.3518 46.7141 49.0995C47.1767 49.3838 47.6077 49.726 48.0071 50.1262C48.4171 50.5263 48.7745 50.9897 49.0794 51.5162C49.3842 52.0427 49.626 52.6376 49.8047 53.3011C49.9834 53.9645 50.0728 54.6963 50.0728 55.4966V56.2864ZM45.973 55.4966C45.973 54.9596 45.889 54.4804 45.7208 54.0592C45.5526 53.6275 45.316 53.2589 45.0112 52.9536C44.7063 52.6482 44.3384 52.4165 43.9074 52.2586C43.4764 52.0901 42.9929 52.0058 42.4567 52.0058H9.25049V47.8674H40.6119C41.148 47.8674 41.6316 47.7885 42.0625 47.6305C42.4935 47.462 42.8615 47.2251 43.1663 46.9197C43.4712 46.6143 43.7024 46.251 43.8601 45.8298C44.0283 45.3981 44.1124 44.9137 44.1124 44.3767V43.6027C44.1124 43.013 43.8286 42.7181 43.2609 42.7181H31.5767V57.1551H45.1058C45.1794 57.1551 45.2687 57.1499 45.3739 57.1393C45.479 57.1288 45.5736 57.0972 45.6577 57.0446C45.7418 56.9919 45.8154 56.9024 45.8784 56.776C45.9415 56.6497 45.973 56.4759 45.973 56.2548V55.4966Z" fill="white"/>
<path d="M91.7282 61.2619H57.9553C57.5718 61.2619 57.1562 61.2198 56.7087 61.1356C56.2718 61.0408 55.8349 60.8986 55.3981 60.7091C54.9719 60.5196 54.5616 60.2774 54.1674 59.9825C53.7731 59.6771 53.4215 59.3138 53.1125 58.8926C52.8142 58.4609 52.5744 57.966 52.3933 57.4079C52.2122 56.8392 52.1216 56.2021 52.1216 55.4966V44.3767C52.1216 43.9976 52.1642 43.5921 52.2494 43.1604C52.3453 42.7181 52.4892 42.2864 52.681 41.8652C52.8728 41.4334 53.1232 41.0228 53.4322 40.6331C53.7412 40.2435 54.1088 39.9013 54.535 39.6064C54.9719 39.3011 55.4727 39.0589 56.0374 38.8799C56.6021 38.7008 57.2414 38.6113 57.9553 38.6113H72.9473V42.7181H57.9553C57.4119 42.7181 56.9964 42.8603 56.7087 43.1446C56.421 43.4289 56.2771 43.8501 56.2771 44.4082V55.4966C56.2771 56.0231 56.421 56.4338 56.7087 56.7287C57.007 57.013 57.4226 57.1551 57.9553 57.1551H91.7282V61.2619Z" fill="white"/>
<path d="M18.7231 24.8779L46.359 8.92234C47.1951 10.3705 46.699 12.2222 45.2508 13.0583L22.8591 25.9861C21.411 26.8222 19.5592 26.3261 18.7231 24.8779Z" fill="white"/>
<path d="M28.6284 82.0215L17.056 75.3401C17.9953 73.7132 20.0757 73.1558 21.7026 74.0951L27.3834 77.3749C29.0103 78.3142 29.5677 80.3945 28.6284 82.0215Z" fill="white"/>
</svg>
